<svg width="20" height="20" viewBox="0 0 20 20" fill="none" xmlns="http://www.w3.org/2000/svg">
<path d="M11.25 5.83333C11.4801 5.83333 11.6667 5.64679 11.6667 5.41667C11.6667 5.18655 11.4801 5 11.25 5C11.0199 5 10.8333 5.18655 10.8333 5.41667C10.8333 5.64679 11.0199 5.83333 11.25 5.83333Z" fill="#C9D5DB" stroke="#1F3F43" stroke-width="1.25" stroke-linecap="round" stroke-linejoin="round"/>
<path d="M14.5833 9.16671C14.8134 9.16671 15 8.98016 15 8.75004C15 8.51992 14.8134 8.33337 14.5833 8.33337C14.3532 8.33337 14.1667 8.51992 14.1667 8.75004C14.1667 8.98016 14.3532 9.16671 14.5833 9.16671Z" fill="#C9D5DB" stroke="#1F3F43" stroke-width="1.25" stroke-linecap="round" stroke-linejoin="round"/>
<path d="M7.08333 6.66671C7.31345 6.66671 7.5 6.48016 7.5 6.25004C7.5 6.01992 7.31345 5.83337 7.08333 5.83337C6.85322 5.83337 6.66667 6.01992 6.66667 6.25004C6.66667 6.48016 6.85322 6.66671 7.08333 6.66671Z" fill="#C9D5DB" stroke="#1F3F43" stroke-width="1.25" stroke-linecap="round" stroke-linejoin="round"/>
<path d="M5.41667 10.8333C5.64679 10.8333 5.83333 10.6468 5.83333 10.4167C5.83333 10.1865 5.64679 10 5.41667 10C5.18655 10 5 10.1865 5 10.4167C5 10.6468 5.18655 10.8333 5.41667 10.8333Z" fill="#C9D5DB" stroke="#1F3F43" stroke-width="1.25" stroke-linecap="round" stroke-linejoin="round"/>
<path d="M10 1.66663C5.41667 1.66663 1.66667 5.41663 1.66667 9.99996C1.66667 14.5833 5.41667 18.3333 10 18.3333C10.7717 18.3333 11.3733 17.7116 11.3733 16.9266C11.3733 16.5625 11.2233 16.2308 11.0092 15.9891C10.7675 15.7483 10.6442 15.4458 10.6442 15.0516C10.641 14.8682 10.6748 14.6861 10.7435 14.516C10.8123 14.3459 10.9145 14.1914 11.0443 14.0617C11.174 13.932 11.3285 13.8297 11.4985 13.761C11.6686 13.6923 11.8508 13.6585 12.0342 13.6616H13.6975C16.24 13.6616 18.3267 11.5758 18.3267 9.03329C18.3042 5.00996 14.5508 1.66663 10 1.66663Z" stroke="#1F3F43" stroke-width="1.25" stroke-linecap="round" stroke-linejoin="round"/>
</svg>
