<svg id="Layer_1" data-name="Layer 1" xmlns="http://www.w3.org/2000/svg" viewBox="0 0 93.18 25.64"><defs><style>.cls-1{fill:#223f43;}</style></defs><path class="cls-1" d="M6.86.74V17.21a20.17,20.17,0,0,0,3.25-2.68c1.32-1.27,2-2.18,2-2.72s-.56-.75-1.7-.87q-.87-.09-.87-.54c0-.29.25-.44.73-.44.29,0,.61,0,1,0,1,.05,1.84.07,2.62.07.52,0,1.06,0,1.63,0C16.24,10,16.77,10,17,10c.44,0,.65.16.65.49s-.37.49-1.1.58a3.84,3.84,0,0,0-1.77.64,14.33,14.33,0,0,0-2.26,2c-.72.73-1.13,1.14-1.25,1.23a8.28,8.28,0,0,1,2.18,1.82,13.25,13.25,0,0,1,2,4.76,13.58,13.58,0,0,0,.69,2.06,1.66,1.66,0,0,0,.84.76,4.25,4.25,0,0,0,1.67.29c.35,0,.53.18.53.51s-.2.47-.6.47l-.34,0c-1.37-.11-2.4-.16-3.1-.16a21.17,21.17,0,0,0-2.58.23,5.64,5.64,0,0,1-1.27-3,7.94,7.94,0,0,0-1.2-3.52A5.06,5.06,0,0,0,8,17.69c-.36.3-.75.59-1.17.88,0,3.21.14,5,.36,5.32a1.65,1.65,0,0,0,1.31.6c.56.06.84.26.84.61s-.26.51-.78.51a5.69,5.69,0,0,1-.63,0c-1.29-.13-2.19-.2-2.7-.2-.78,0-1.83.06-3.14.17l-1,.05c-.58,0-.87-.18-.87-.52s.23-.49.7-.55q1.44-.18,1.56-1.05c.08-.58.13-2.41.13-5.5L2.55,5.44a4.22,4.22,0,0,0-.4-2.3A2.06,2.06,0,0,0,.8,2.47C.27,2.38,0,2.2,0,1.93s.28-.47.85-.51Q3.81,1.23,6.86.74Z"/><path class="cls-1" d="M33.59,17.23a8.64,8.64,0,0,1-8.77,8.5,8.43,8.43,0,0,1-5.9-2.17,7.42,7.42,0,0,1-2.39-5.78,7.65,7.65,0,0,1,2.53-6A8.87,8.87,0,0,1,25.2,9.56a8.61,8.61,0,0,1,6,2.15A7.13,7.13,0,0,1,33.59,17.23Zm-5,1.24a14,14,0,0,0-1-5.37c-.65-1.6-1.6-2.4-2.83-2.4a2.75,2.75,0,0,0-2.51,1.68,10.2,10.2,0,0,0-.89,4.7,12.62,12.62,0,0,0,1,5.41c.67,1.4,1.58,2.11,2.75,2.11a2.78,2.78,0,0,0,2.59-1.69A9.68,9.68,0,0,0,28.6,18.47Z"/><path class="cls-1" d="M41.51,11.14c0-3.49,0-5.81-.06-7a4.55,4.55,0,0,0-.33-2,2.75,2.75,0,0,0-1.45-.48c-.53-.07-.79-.24-.79-.51a.35.35,0,0,1,.27-.38A9.18,9.18,0,0,1,40.92.66H46.3l0,12.85-.1,8a4.75,4.75,0,0,0,.35,2.34,2.41,2.41,0,0,0,1.64.63c.51.05.76.22.76.51s-.27.47-.8.47h-6.6V23A5.89,5.89,0,0,1,39.37,25a6.08,6.08,0,0,1-2.94.69A7.9,7.9,0,0,1,31,23.57,7.19,7.19,0,0,1,28.6,18a7.85,7.85,0,0,1,2.69-6.12,8.84,8.84,0,0,1,6-2.39,6.13,6.13,0,0,1,2.29.41A5.94,5.94,0,0,1,41.51,11.14ZM34.1,17.49a9.6,9.6,0,0,0,1,5.05,3,3,0,0,0,2.62,1.6,3.2,3.2,0,0,0,2.63-1.52c.72-1,1.09-2.86,1.09-5.52a10.2,10.2,0,0,0-.92-4.88,3,3,0,0,0-2.77-1.63A3,3,0,0,0,35,12.32,11.4,11.4,0,0,0,34.1,17.49Z"/><path class="cls-1" d="M53.06,9.76c.06,1.24.09,2.94.09,5.09q0,4.88.09,6.25a3.28,3.28,0,0,0,.72,2,1.87,1.87,0,0,0,1.42.69,3.23,3.23,0,0,0,1.9-.71,4.1,4.1,0,0,0,1.43-1.85,10.63,10.63,0,0,0,.47-3.72l0-4a8.3,8.3,0,0,0-.17-2.1c-.12-.33-.5-.52-1.17-.54s-1.08-.22-1.08-.56a.35.35,0,0,1,.26-.39,7,7,0,0,1,1.38-.08c1.68,0,3.24,0,4.69-.13q.08.71.07,7.73,0,5.64.11,6.16t1.17.6c.43.05.64.22.64.53s-.24.52-.73.52l-.45,0c-.34,0-.73,0-1.19,0H60.08a4.54,4.54,0,0,1-.49,0q-.35,0-.42-.12a1.47,1.47,0,0,1-.09-.69,15.29,15.29,0,0,1,.13-1.9,9.3,9.3,0,0,1-2.63,2.28,6,6,0,0,1-2.9.76q-4.62,0-4.62-5.18V14.85a15.28,15.28,0,0,0-.2-3.4c-.14-.33-.51-.54-1.1-.62S47,10.6,47,10.36s.23-.49.7-.49C50.9,9.87,52.7,9.83,53.06,9.76Z"/><path class="cls-1" d="M49.75,7.32A2,2,0,0,1,48.58,7a2.4,2.4,0,0,1-.78-1,3.59,3.59,0,0,1-.28-1.48A3.59,3.59,0,0,1,47.8,3a2.37,2.37,0,0,1,.79-1,2,2,0,0,1,1.17-.35,1.73,1.73,0,0,1,.83.18,1.54,1.54,0,0,1,.53.44,2.13,2.13,0,0,1,.31.5h.06V-.07h.66V7.2h-.64v-1h-.08a2.22,2.22,0,0,1-.31.52,1.68,1.68,0,0,1-.54.44A1.7,1.7,0,0,1,49.75,7.32Zm.09-.6a1.45,1.45,0,0,0,.9-.29,1.86,1.86,0,0,0,.56-.79,3.21,3.21,0,0,0,.19-1.16,3.1,3.1,0,0,0-.19-1.14,1.8,1.8,0,0,0-.56-.79,1.51,1.51,0,0,0-.9-.28,1.45,1.45,0,0,0-.9.29,1.74,1.74,0,0,0-.56.8,3.06,3.06,0,0,0-.19,1.12,3.17,3.17,0,0,0,.19,1.14,1.87,1.87,0,0,0,.56.8A1.4,1.4,0,0,0,49.84,6.72Z"/><path class="cls-1" d="M56,7.32A2.33,2.33,0,0,1,53.84,6a3.4,3.4,0,0,1-.3-1.46A3.45,3.45,0,0,1,53.84,3a2.43,2.43,0,0,1,.84-1,2.12,2.12,0,0,1,1.25-.37,2.48,2.48,0,0,1,.86.16,2.19,2.19,0,0,1,.75.5,2.34,2.34,0,0,1,.52.85,3.38,3.38,0,0,1,.19,1.21v.28H54V4.1H57.9l-.3.22a2.69,2.69,0,0,0-.2-1.05,1.7,1.7,0,0,0-.58-.73,1.45,1.45,0,0,0-.89-.27,1.55,1.55,0,0,0-.91.27,1.84,1.84,0,0,0-.6.72,2.18,2.18,0,0,0-.22,1v.34a2.6,2.6,0,0,0,.23,1.12,1.79,1.79,0,0,0,.63.75,2,2,0,0,0,1.65.14,1.54,1.54,0,0,0,.49-.32,1.34,1.34,0,0,0,.29-.44l.63.2a1.75,1.75,0,0,1-.41.63,2,2,0,0,1-.7.47A2.48,2.48,0,0,1,56,7.32Z"/><path class="cls-1" d="M61,7.2,58.92,1.74h.73l1.26,3.44c.11.3.21.61.3.91s.18.61.28.9h-.24c.1-.29.19-.59.28-.9a8.06,8.06,0,0,1,.3-.91l1.26-3.44h.72L61.72,7.2Z"/><path class="cls-1" d="M67,7.32A2.43,2.43,0,0,1,65.67,7a2.37,2.37,0,0,1-.86-1,3.4,3.4,0,0,1-.31-1.46A3.45,3.45,0,0,1,64.8,3a2.43,2.43,0,0,1,.84-1,2.15,2.15,0,0,1,1.26-.37,2.52,2.52,0,0,1,.86.16,2.19,2.19,0,0,1,.75.5,2.49,2.49,0,0,1,.52.85,3.38,3.38,0,0,1,.19,1.21v.28H64.94V4.1h3.92l-.3.22a2.69,2.69,0,0,0-.2-1.05,1.61,1.61,0,0,0-.57-.73,1.49,1.49,0,0,0-.89-.27,1.55,1.55,0,0,0-.91.27,1.76,1.76,0,0,0-.6.72,2.18,2.18,0,0,0-.22,1v.34a2.6,2.6,0,0,0,.22,1.12,1.81,1.81,0,0,0,.64.75,1.74,1.74,0,0,0,1,.26,1.79,1.79,0,0,0,.68-.12,1.49,1.49,0,0,0,.48-.32,1.38,1.38,0,0,0,.3-.44l.63.2a1.9,1.9,0,0,1-.41.63,2.05,2.05,0,0,1-.7.47A2.52,2.52,0,0,1,67,7.32Z"/><path class="cls-1" d="M71.25-.07V7.2h-.67V-.07Z"/><path class="cls-1" d="M75.05,7.32A2.22,2.22,0,0,1,73.79,7a2.5,2.5,0,0,1-.85-1,3.45,3.45,0,0,1-.31-1.47A3.38,3.38,0,0,1,72.94,3a2.46,2.46,0,0,1,.85-1A2.37,2.37,0,0,1,76.3,2a2.39,2.39,0,0,1,.85,1,3.25,3.25,0,0,1,.31,1.47A3.31,3.31,0,0,1,77.15,6a2.35,2.35,0,0,1-.85,1A2.21,2.21,0,0,1,75.05,7.32Zm0-.6a1.52,1.52,0,0,0,1-.3,1.82,1.82,0,0,0,.59-.81,2.82,2.82,0,0,0,.2-1.11,2.85,2.85,0,0,0-.2-1.11,1.92,1.92,0,0,0-.6-.81,1.44,1.44,0,0,0-.94-.31,1.47,1.47,0,0,0-1,.31,1.9,1.9,0,0,0-.59.81A2.85,2.85,0,0,0,73.3,4.5a2.82,2.82,0,0,0,.21,1.11,1.82,1.82,0,0,0,.59.81A1.5,1.5,0,0,0,75.05,6.72Z"/><path class="cls-1" d="M78.85,9.24V1.74h.64V2.79h.07a2.53,2.53,0,0,1,.31-.5,1.62,1.62,0,0,1,1.37-.62A2,2,0,0,1,82.41,2a2.45,2.45,0,0,1,.79,1,3.76,3.76,0,0,1,.28,1.48A3.59,3.59,0,0,1,83.2,6a2.34,2.34,0,0,1-.79,1,2,2,0,0,1-1.17.35,1.76,1.76,0,0,1-.83-.18,1.54,1.54,0,0,1-.53-.44,2.71,2.71,0,0,1-.32-.52h0V9.24Zm2.3-2.52a1.4,1.4,0,0,0,.91-.3,2,2,0,0,0,.56-.8,3.17,3.17,0,0,0,.19-1.14,3.06,3.06,0,0,0-.19-1.12,1.81,1.81,0,0,0-.56-.8,1.46,1.46,0,0,0-.91-.29,1.51,1.51,0,0,0-.9.28,1.8,1.8,0,0,0-.56.79,3.1,3.1,0,0,0-.19,1.14,3.21,3.21,0,0,0,.19,1.16,1.8,1.8,0,0,0,.57.79A1.4,1.4,0,0,0,81.15,6.72Z"/><path class="cls-1" d="M87.08,7.32A2.41,2.41,0,0,1,85.75,7a2.37,2.37,0,0,1-.86-1,3.26,3.26,0,0,1-.31-1.46A3.45,3.45,0,0,1,84.88,3a2.43,2.43,0,0,1,.84-1A2.15,2.15,0,0,1,87,1.67a2.57,2.57,0,0,1,.86.16,2.29,2.29,0,0,1,.75.5,2.49,2.49,0,0,1,.52.85,3.38,3.38,0,0,1,.19,1.21v.28H85V4.1h3.92l-.3.22a2.69,2.69,0,0,0-.2-1.05,1.61,1.61,0,0,0-.57-.73A1.49,1.49,0,0,0,87,2.27a1.55,1.55,0,0,0-.91.27,1.87,1.87,0,0,0-.61.72,2.31,2.31,0,0,0-.21,1v.34a2.6,2.6,0,0,0,.22,1.12,1.74,1.74,0,0,0,.64.75,1.94,1.94,0,0,0,1.64.14,1.44,1.44,0,0,0,.49-.32,1.56,1.56,0,0,0,.3-.44l.63.2a1.9,1.9,0,0,1-.41.63,2,2,0,0,1-.71.47A2.47,2.47,0,0,1,87.08,7.32Z"/><path class="cls-1" d="M90.66,7.2V1.74h.65v.85h0a1.35,1.35,0,0,1,.56-.67,1.69,1.69,0,0,1,.92-.25h.34v.66l-.15,0h-.24a1.58,1.58,0,0,0-.76.18,1.44,1.44,0,0,0-.52.49,1.43,1.43,0,0,0-.18.72V7.2Z"/></svg>