<svg id="Layer_1" data-name="Layer 1" xmlns="http://www.w3.org/2000/svg" viewBox="0 0 65.11 24.98"><defs><style>.cls-1{fill:#fff;}</style></defs><path class="cls-1" d="M6.86,0V16.51a20.91,20.91,0,0,0,3.25-2.69c1.32-1.27,2-2.18,2-2.72s-.56-.75-1.7-.87q-.87-.09-.87-.54c0-.29.25-.44.73-.44.29,0,.61,0,1,0,1,.05,1.84.07,2.62.07.52,0,1.06,0,1.63,0,.79,0,1.32-.07,1.57-.07.44,0,.65.17.65.49s-.37.5-1.1.58A3.84,3.84,0,0,0,14.8,11a14.33,14.33,0,0,0-2.26,2c-.72.73-1.13,1.14-1.25,1.23A8.28,8.28,0,0,1,13.47,16a13.25,13.25,0,0,1,2,4.76,13.58,13.58,0,0,0,.69,2.06,1.62,1.62,0,0,0,.84.76,4.25,4.25,0,0,0,1.67.29c.35,0,.53.18.53.51s-.2.47-.6.47l-.34,0c-1.37-.11-2.4-.16-3.1-.16a19.68,19.68,0,0,0-2.58.24,5.71,5.71,0,0,1-1.27-3,7.94,7.94,0,0,0-1.2-3.52A5.16,5.16,0,0,0,8,17c-.36.3-.75.59-1.17.88,0,3.21.14,5,.36,5.32a1.65,1.65,0,0,0,1.31.6c.56.06.84.26.84.61s-.26.51-.78.51a5.69,5.69,0,0,1-.63,0c-1.29-.13-2.19-.2-2.7-.2-.78,0-1.83.06-3.14.17l-1,.05c-.58,0-.87-.17-.87-.52s.23-.49.7-.55q1.44-.18,1.56-1c.08-.57.13-2.41.13-5.49L2.55,4.73a4.22,4.22,0,0,0-.4-2.3A2.11,2.11,0,0,0,.8,1.76C.27,1.67,0,1.49,0,1.22S.28.75.85.71Q3.81.51,6.86,0Z"/><path class="cls-1" d="M33.59,16.52A8.66,8.66,0,0,1,24.82,25a8.44,8.44,0,0,1-5.9-2.18,7.42,7.42,0,0,1-2.39-5.78,7.65,7.65,0,0,1,2.53-6A8.87,8.87,0,0,1,25.2,8.85a8.61,8.61,0,0,1,6,2.15A7.13,7.13,0,0,1,33.59,16.52Zm-5,1.24a14,14,0,0,0-1-5.37C27,10.79,26,10,24.78,10a2.75,2.75,0,0,0-2.51,1.68,10.2,10.2,0,0,0-.89,4.7,12.62,12.62,0,0,0,1,5.41c.67,1.4,1.58,2.11,2.75,2.11a2.78,2.78,0,0,0,2.59-1.69A9.68,9.68,0,0,0,28.6,17.76Z"/><path class="cls-1" d="M41.51,10.43c0-3.49,0-5.81-.06-7a4.55,4.55,0,0,0-.33-2A2.75,2.75,0,0,0,39.67.93c-.53-.07-.79-.24-.79-.5A.36.36,0,0,1,39.15,0,9.18,9.18,0,0,1,40.92,0H46.3l0,12.85-.1,8a4.72,4.72,0,0,0,.35,2.34,2.41,2.41,0,0,0,1.64.63c.51.05.76.22.76.51s-.27.47-.8.47h-6.6V22.24a5.89,5.89,0,0,1-2.14,2.08,6.08,6.08,0,0,1-2.94.69A7.9,7.9,0,0,1,31,22.86a7.19,7.19,0,0,1-2.35-5.55,7.85,7.85,0,0,1,2.69-6.12,8.84,8.84,0,0,1,6-2.39,6.34,6.34,0,0,1,2.29.41A6.11,6.11,0,0,1,41.51,10.43ZM34.1,16.79a9.65,9.65,0,0,0,1,5.05,3,3,0,0,0,2.62,1.59,3.17,3.17,0,0,0,2.63-1.52c.72-1,1.09-2.86,1.09-5.52a10.23,10.23,0,0,0-.92-4.88,3,3,0,0,0-2.77-1.62A3,3,0,0,0,35,11.61,11.42,11.42,0,0,0,34.1,16.79Z"/><path class="cls-1" d="M53.06,9.05c.06,1.25.09,2.94.09,5.09,0,3.25,0,5.34.09,6.25A3.28,3.28,0,0,0,54,22.44a1.87,1.87,0,0,0,1.42.69,3.23,3.23,0,0,0,1.9-.71,4.07,4.07,0,0,0,1.43-1.84,10.74,10.74,0,0,0,.47-3.73l0-4a8.3,8.3,0,0,0-.17-2.1c-.12-.33-.5-.51-1.17-.54s-1.08-.22-1.08-.56a.36.36,0,0,1,.26-.39,7,7,0,0,1,1.38-.08c1.68,0,3.24,0,4.69-.13q.08.7.07,7.73,0,5.64.11,6.16t1.17.6c.43.05.64.23.64.53s-.24.52-.73.52a4.43,4.43,0,0,1-.45,0c-.34,0-.73,0-1.19,0-1.61,0-2.49,0-2.66,0h-.49c-.23,0-.37,0-.42-.11a1.53,1.53,0,0,1-.09-.7,15.29,15.29,0,0,1,.13-1.9,9.3,9.3,0,0,1-2.63,2.28,5.9,5.9,0,0,1-2.9.76c-3.08,0-4.62-1.73-4.62-5.17V14.14a15.28,15.28,0,0,0-.2-3.4c-.14-.33-.51-.53-1.1-.62S47,9.89,47,9.65s.23-.49.7-.49C50.9,9.16,52.7,9.13,53.06,9.05Z"/></svg>