<svg id="Layer_1" data-name="Layer 1" xmlns="http://www.w3.org/2000/svg" viewBox="0 0 70.87 70.87"><defs><style>.cls-1{fill:#223f43;}.cls-2{fill:#facc58;}</style></defs><rect class="cls-1" x="-4.28" y="-7.16" width="78.71" height="83.19"/><path class="cls-2" d="M31.34,6.56V43.44a45,45,0,0,0,7.28-6Q43,33.16,43,31.34c0-1-1.27-1.68-3.8-1.95-1.3-.13-2-.54-2-1.21s.54-1,1.62-1c.65,0,1.37,0,2.15.08,2.16.1,4.11.16,5.87.16,1.16,0,2.37,0,3.64-.08,1.78-.11,3-.16,3.53-.16,1,0,1.45.36,1.45,1.09s-.82,1.11-2.47,1.29a8.87,8.87,0,0,0-4,1.44,32.65,32.65,0,0,0-5.07,4.51Q41.67,38,41.26,38.3a18.65,18.65,0,0,1,4.88,4.07Q48.42,45,50.69,53a32.41,32.41,0,0,0,1.53,4.6,3.75,3.75,0,0,0,1.88,1.7,9.68,9.68,0,0,0,3.76.66c.78,0,1.17.4,1.17,1.13s-.44,1.06-1.33,1.06c-.19,0-.45,0-.77,0q-4.57-.36-6.92-.36a45.37,45.37,0,0,0-5.79.53C42.89,61,42,58.72,41.38,55.51q-1.05-6-2.68-7.88A11.66,11.66,0,0,0,34,44.49c-.8.68-1.68,1.34-2.62,2q.09,10.77.83,11.9a3.66,3.66,0,0,0,2.91,1.34c1.26.13,1.89.59,1.89,1.37s-.58,1.14-1.74,1.14c-.35,0-.82,0-1.42-.08q-4.34-.45-6-.45c-1.76,0-4.1.12-7,.36-1.05.09-1.76.13-2.14.13-1.3,0-1.94-.4-1.94-1.18s.52-1.08,1.57-1.21c2.14-.27,3.3-1,3.49-2.35s.28-5.4.28-12.31l-.28-28.06q0-4-.89-5.14a4.79,4.79,0,0,0-3-1.5C16.59,10.23,16,9.82,16,9.23s.63-1.05,1.91-1.13Q24.53,7.65,31.34,6.56Z"/></svg>